<svg xmlns="http://www.w3.org/2000/svg" version="1.1" xmlns:xlink="http://www.w3.org/1999/xlink" width="1000" height="1000"><metadata><rdf:RDF xmlns:rdf="http://www.w3.org/1999/02/22-rdf-syntax-ns#" xmlns:dc="http://purl.org/dc/elements/1.1/"><rdf:Description><dc:creator>RealFaviconGenerator</dc:creator><dc:source>https://realfavicongenerator.net</dc:source></rdf:Description></rdf:RDF></metadata><style>
    #light-icon {
      display: inline;
    }
    #dark-icon {
      display: none;
    }

    @media (prefers-color-scheme: dark) {
      #light-icon {
        display: none;
      }
      #dark-icon {
        display: inline;
      }
    }
  </style><g id="light-icon"><svg xmlns="http://www.w3.org/2000/svg" version="1.1" xmlns:xlink="http://www.w3.org/1999/xlink" width="1000" height="1000"><g clip-path="url(#SvgjsClipPath1142)"><rect width="1000" height="1000" fill="#ffffff"></rect><g transform="matrix(31.25,0,0,31.25,0,0)"><svg xmlns="http://www.w3.org/2000/svg" viewBox="0 0 32 32" fill="none" width="32" height="32"><path d="M4 15L16 4L28 15V28H4V15Z" fill="#8d4f22"></path><path d="M4 15L16 4L28 15" stroke="#c08050" stroke-width="1.5" stroke-linejoin="round" fill="none"></path><rect x="12.5" y="20" width="7" height="8" rx="3.5" fill="#f5ede0"></rect><path d="M16 10.5C16 10.5 13 13.5 13 15.8C13 17.6 14.3 19 16 19C17.7 19 19 17.6 19 15.8C19 13.5 16 10.5 16 10.5Z" fill="#f5ede0"></path><path d="M16 13C16 13 14.5 14.5 14.5 15.8C14.5 16.7 15.2 17.4 16 17.4C16.8 17.4 17.5 16.7 17.5 15.8C17.5 14.5 16 13 16 13Z" fill="#e8a060"></path></svg></g></g><defs><clipPath id="SvgjsClipPath1142"><rect width="1000" height="1000" x="0" y="0" rx="400" ry="400"></rect></clipPath></defs></svg></g><g id="dark-icon"><svg xmlns="http://www.w3.org/2000/svg" version="1.1" xmlns:xlink="http://www.w3.org/1999/xlink" width="1000" height="1000"><g clip-path="url(#SvgjsClipPath1143)"><rect width="1000" height="1000" fill="#ffffff"></rect><g transform="matrix(31.25,0,0,31.25,0,0)"><svg xmlns="http://www.w3.org/2000/svg" viewBox="0 0 32 32" fill="none" width="32" height="32"><path d="M4 15L16 4L28 15V28H4V15Z" fill="#8d4f22"></path><path d="M4 15L16 4L28 15" stroke="#c08050" stroke-width="1.5" stroke-linejoin="round" fill="none"></path><rect x="12.5" y="20" width="7" height="8" rx="3.5" fill="#f5ede0"></rect><path d="M16 10.5C16 10.5 13 13.5 13 15.8C13 17.6 14.3 19 16 19C17.7 19 19 17.6 19 15.8C19 13.5 16 10.5 16 10.5Z" fill="#f5ede0"></path><path d="M16 13C16 13 14.5 14.5 14.5 15.8C14.5 16.7 15.2 17.4 16 17.4C16.8 17.4 17.5 16.7 17.5 15.8C17.5 14.5 16 13 16 13Z" fill="#e8a060"></path></svg></g></g><defs><clipPath id="SvgjsClipPath1143"><rect width="1000" height="1000" x="0" y="0" rx="350" ry="350"></rect></clipPath></defs></svg></g></svg>